G04 #@! TF.GenerationSoftware,KiCad,Pcbnew,(5.1.9-0-10_14)*
G04 #@! TF.CreationDate,2022-07-17T19:47:57+02:00*
G04 #@! TF.ProjectId,klara-circuitry,6b6c6172-612d-4636-9972-637569747279,rev?*
G04 #@! TF.SameCoordinates,Original*
G04 #@! TF.FileFunction,Copper,L2,Bot*
G04 #@! TF.FilePolarity,Positive*
%FSLAX46Y46*%
G04 Gerber Fmt 4.6, Leading zero omitted, Abs format (unit mm)*
G04 Created by KiCad (PCBNEW (5.1.9-0-10_14)) date 2022-07-17 19:47:57*
%MOMM*%
%LPD*%
G01*
G04 APERTURE LIST*
G04 #@! TA.AperFunction,ComponentPad*
%ADD10O,1.700000X1.700000*%
G04 #@! TD*
G04 #@! TA.AperFunction,ComponentPad*
%ADD11R,1.700000X1.700000*%
G04 #@! TD*
G04 #@! TA.AperFunction,ComponentPad*
%ADD12C,1.600000*%
G04 #@! TD*
G04 #@! TA.AperFunction,ComponentPad*
%ADD13R,1.500000X1.500000*%
G04 #@! TD*
G04 #@! TA.AperFunction,ComponentPad*
%ADD14C,1.500000*%
G04 #@! TD*
G04 #@! TA.AperFunction,ComponentPad*
%ADD15O,1.600000X1.600000*%
G04 #@! TD*
G04 #@! TA.AperFunction,ComponentPad*
%ADD16R,1.600000X1.600000*%
G04 #@! TD*
G04 #@! TA.AperFunction,ComponentPad*
%ADD17C,1.800000*%
G04 #@! TD*
G04 #@! TA.AperFunction,ComponentPad*
%ADD18R,1.800000X1.800000*%
G04 #@! TD*
G04 #@! TA.AperFunction,ComponentPad*
%ADD19C,2.000000*%
G04 #@! TD*
G04 #@! TA.AperFunction,ComponentPad*
%ADD20R,2.000000X2.000000*%
G04 #@! TD*
G04 #@! TA.AperFunction,ComponentPad*
%ADD21O,1.500000X1.500000*%
G04 #@! TD*
G04 #@! TA.AperFunction,ViaPad*
%ADD22C,0.600000*%
G04 #@! TD*
G04 #@! TA.AperFunction,Conductor*
%ADD23C,1.000000*%
G04 #@! TD*
G04 #@! TA.AperFunction,Conductor*
%ADD24C,0.400000*%
G04 #@! TD*
G04 #@! TA.AperFunction,Conductor*
%ADD25C,0.250000*%
G04 #@! TD*
G04 APERTURE END LIST*
D10*
G04 #@! TO.P,LCD1,5*
G04 #@! TO.N,Net-(C2-Pad2)*
X120490000Y-108490000D03*
G04 #@! TO.P,LCD1,4*
G04 #@! TO.N,Net-(C2-Pad1)*
X117950000Y-108490000D03*
G04 #@! TO.P,LCD1,3*
G04 #@! TO.N,Net-(LCD1-Pad3)*
X115410000Y-108490000D03*
G04 #@! TO.P,LCD1,2*
G04 #@! TO.N,Net-(LCD1-Pad2)*
X112870000Y-108490000D03*
D11*
G04 #@! TO.P,LCD1,1*
G04 #@! TO.N,Net-(LCD1-Pad1)*
X110330000Y-108490000D03*
G04 #@! TD*
D12*
G04 #@! TO.P,C2,2*
G04 #@! TO.N,Net-(C2-Pad2)*
X92790000Y-91440000D03*
G04 #@! TO.P,C2,1*
G04 #@! TO.N,Net-(C2-Pad1)*
X97790000Y-91440000D03*
G04 #@! TD*
D13*
G04 #@! TO.P,U1,1*
G04 #@! TO.N,Net-(C2-Pad2)*
X92710000Y-86360000D03*
D14*
G04 #@! TO.P,U1,3*
G04 #@! TO.N,Net-(C2-Pad1)*
X97790000Y-86360000D03*
G04 #@! TO.P,U1,2*
G04 #@! TO.N,Net-(CS1-Pad1)*
X95250000Y-86360000D03*
G04 #@! TD*
D10*
G04 #@! TO.P,J1,5*
G04 #@! TO.N,Net-(C2-Pad2)*
X128270000Y-85090000D03*
G04 #@! TO.P,J1,4*
G04 #@! TO.N,Net-(J1-Pad4)*
X125730000Y-85090000D03*
G04 #@! TO.P,J1,3*
G04 #@! TO.N,Net-(J1-Pad3)*
X123190000Y-85090000D03*
G04 #@! TO.P,J1,2*
G04 #@! TO.N,Net-(J1-Pad2)*
X120650000Y-85090000D03*
D11*
G04 #@! TO.P,J1,1*
G04 #@! TO.N,Net-(C2-Pad1)*
X118110000Y-85090000D03*
G04 #@! TD*
D15*
G04 #@! TO.P,U3,8*
G04 #@! TO.N,Net-(C2-Pad1)*
X120650000Y-72390000D03*
G04 #@! TO.P,U3,4*
G04 #@! TO.N,Net-(C2-Pad2)*
X128270000Y-80010000D03*
G04 #@! TO.P,U3,7*
G04 #@! TO.N,Net-(LCD1-Pad2)*
X123190000Y-72390000D03*
G04 #@! TO.P,U3,3*
G04 #@! TO.N,Net-(LCD1-Pad1)*
X125730000Y-80010000D03*
G04 #@! TO.P,U3,6*
G04 #@! TO.N,Net-(LCD1-Pad3)*
X125730000Y-72390000D03*
G04 #@! TO.P,U3,2*
G04 #@! TO.N,Net-(R2-Pad2)*
X123190000Y-80010000D03*
G04 #@! TO.P,U3,5*
G04 #@! TO.N,Net-(D3-Pad1)*
X128270000Y-72390000D03*
D16*
G04 #@! TO.P,U3,1*
G04 #@! TO.N,Net-(J1-Pad3)*
X120650000Y-80010000D03*
G04 #@! TD*
D15*
G04 #@! TO.P,R2,2*
G04 #@! TO.N,Net-(R2-Pad2)*
X111760000Y-85090000D03*
D12*
G04 #@! TO.P,R2,1*
G04 #@! TO.N,Net-(C2-Pad1)*
X101600000Y-85090000D03*
G04 #@! TD*
D15*
G04 #@! TO.P,R3,2*
G04 #@! TO.N,Net-(C2-Pad2)*
X101600000Y-81280000D03*
D12*
G04 #@! TO.P,R3,1*
G04 #@! TO.N,Net-(R2-Pad2)*
X111760000Y-81280000D03*
G04 #@! TD*
D17*
G04 #@! TO.P,D3,2*
G04 #@! TO.N,Net-(D3-Pad2)*
X101600000Y-76200000D03*
D18*
G04 #@! TO.P,D3,1*
G04 #@! TO.N,Net-(D3-Pad1)*
X104140000Y-76200000D03*
G04 #@! TD*
D19*
G04 #@! TO.P,CS1,2*
G04 #@! TO.N,Net-(C2-Pad2)*
X86280000Y-100330000D03*
D20*
G04 #@! TO.P,CS1,1*
G04 #@! TO.N,Net-(CS1-Pad1)*
X81280000Y-100330000D03*
G04 #@! TD*
D19*
G04 #@! TO.P,CS2,2*
G04 #@! TO.N,Net-(C2-Pad2)*
X86280000Y-77470000D03*
D20*
G04 #@! TO.P,CS2,1*
G04 #@! TO.N,Net-(CS1-Pad1)*
X81280000Y-77470000D03*
G04 #@! TD*
D15*
G04 #@! TO.P,R4,2*
G04 #@! TO.N,Net-(D3-Pad2)*
X96520000Y-69850000D03*
D12*
G04 #@! TO.P,R4,1*
G04 #@! TO.N,Net-(C2-Pad1)*
X96520000Y-80010000D03*
G04 #@! TD*
D15*
G04 #@! TO.P,D1,2*
G04 #@! TO.N,Net-(D1-Pad2)*
X71120000Y-92710000D03*
D16*
G04 #@! TO.P,D1,1*
G04 #@! TO.N,Net-(CS1-Pad1)*
X71120000Y-102870000D03*
G04 #@! TD*
D15*
G04 #@! TO.P,R1,2*
G04 #@! TO.N,Net-(D1-Pad2)*
X71120000Y-88900000D03*
D12*
G04 #@! TO.P,R1,1*
G04 #@! TO.N,Net-(R1-Pad1)*
X81280000Y-88900000D03*
G04 #@! TD*
D21*
G04 #@! TO.P,D2,2*
G04 #@! TO.N,Net-(C2-Pad2)*
X71120000Y-77470000D03*
D13*
G04 #@! TO.P,D2,1*
G04 #@! TO.N,Net-(CS1-Pad1)*
X71120000Y-85090000D03*
G04 #@! TD*
D12*
G04 #@! TO.P,SC1,2*
G04 #@! TO.N,Net-(C2-Pad2)*
X103930000Y-34290000D03*
G04 #@! TO.P,SC1,1*
G04 #@! TO.N,Net-(R1-Pad1)*
G04 #@! TA.AperFunction,ComponentPad*
G36*
G01*
X99530000Y-34840000D02*
X99530000Y-33740000D01*
G75*
G02*
X99780000Y-33490000I250000J0D01*
G01*
X100880000Y-33490000D01*
G75*
G02*
X101130000Y-33740000I0J-250000D01*
G01*
X101130000Y-34840000D01*
G75*
G02*
X100880000Y-35090000I-250000J0D01*
G01*
X99780000Y-35090000D01*
G75*
G02*
X99530000Y-34840000I0J250000D01*
G01*
G37*
G04 #@! TD.AperFunction*
G04 #@! TD*
D22*
G04 #@! TO.N,Net-(C2-Pad2)*
X110490000Y-91440000D03*
X110490000Y-91440000D03*
X110490000Y-91440000D03*
X116840000Y-91440000D03*
X120650000Y-91440000D03*
G04 #@! TO.N,Net-(CS1-Pad1)*
X81280000Y-82550000D03*
G04 #@! TO.N,Net-(LCD1-Pad2)*
X123190000Y-74930000D03*
X123190000Y-74930000D03*
G04 #@! TO.N,Net-(LCD1-Pad1)*
X116680000Y-94140000D03*
X131920000Y-94140000D03*
G04 #@! TO.N,Net-(R1-Pad1)*
X76200000Y-68580000D03*
G04 #@! TO.N,Net-(R2-Pad2)*
X120650000Y-76200000D03*
X120650000Y-76200000D03*
X115570000Y-76200000D03*
G04 #@! TD*
D23*
G04 #@! TO.N,Net-(C2-Pad2)*
X86280000Y-77470000D02*
X86280000Y-100330000D01*
X86280000Y-73580000D02*
X86280000Y-77470000D01*
D24*
X128270000Y-86360000D02*
X128270000Y-85090000D01*
X128270000Y-85090000D02*
X128270000Y-80010000D01*
X110490000Y-91440000D02*
X116840000Y-91440000D01*
X116840000Y-91440000D02*
X116840000Y-91440000D01*
X120490000Y-108490000D02*
X120490000Y-91600000D01*
X120650000Y-91440000D02*
X128270000Y-91440000D01*
X128270000Y-91440000D02*
X128270000Y-85090000D01*
X97790000Y-77470000D02*
X101600000Y-81280000D01*
X93980000Y-77470000D02*
X97790000Y-77470000D01*
X92750000Y-86400000D02*
X92710000Y-86360000D01*
X92710000Y-86360000D02*
X92710000Y-77470000D01*
X92710000Y-77470000D02*
X93980000Y-77470000D01*
X86280000Y-77470000D02*
X92710000Y-77470000D01*
D23*
X104140000Y-38100000D02*
X104140000Y-34500000D01*
X102870000Y-39370000D02*
X104140000Y-38100000D01*
X86280000Y-73580000D02*
X86440000Y-73580000D01*
X102870000Y-57150000D02*
X102870000Y-39370000D01*
X104140000Y-34500000D02*
X103930000Y-34290000D01*
X73660000Y-71120000D02*
X71120000Y-73660000D01*
X71120000Y-73660000D02*
X71120000Y-77470000D01*
X86200000Y-71120000D02*
X73660000Y-71120000D01*
X86280000Y-71200000D02*
X86200000Y-71120000D01*
X86280000Y-73580000D02*
X86280000Y-71200000D01*
X88820000Y-71200000D02*
X102870000Y-57150000D01*
X86280000Y-71200000D02*
X88820000Y-71200000D01*
D25*
X92710000Y-91360000D02*
X92790000Y-91440000D01*
X92710000Y-86360000D02*
X92710000Y-91360000D01*
D24*
G04 #@! TO.N,Net-(C2-Pad1)*
X118110000Y-87630000D02*
X118110000Y-85090000D01*
X104140000Y-87630000D02*
X118110000Y-87630000D01*
X118110000Y-108330000D02*
X117950000Y-108490000D01*
X118110000Y-87630000D02*
X118110000Y-108330000D01*
X118110000Y-85090000D02*
X118110000Y-72390000D01*
X118110000Y-72390000D02*
X120650000Y-72390000D01*
X101600000Y-87630000D02*
X101600000Y-85090000D01*
X104140000Y-87630000D02*
X101600000Y-87630000D01*
X101600000Y-87630000D02*
X97790000Y-87630000D01*
X97790000Y-86360000D02*
X97790000Y-81280000D01*
X97790000Y-81280000D02*
X96520000Y-80010000D01*
D25*
X97790000Y-86360000D02*
X97790000Y-87630000D01*
X97790000Y-87630000D02*
X97790000Y-91440000D01*
D23*
G04 #@! TO.N,Net-(CS1-Pad1)*
X81280000Y-77470000D02*
X81280000Y-85090000D01*
X78740000Y-102870000D02*
X81280000Y-100330000D01*
X77470000Y-102870000D02*
X77470000Y-91440000D01*
X77470000Y-85090000D02*
X71120000Y-85090000D01*
X81280000Y-85090000D02*
X77470000Y-85090000D01*
X77470000Y-91440000D02*
X77470000Y-85090000D01*
X71120000Y-102870000D02*
X77470000Y-102870000D01*
X77470000Y-102870000D02*
X78740000Y-102870000D01*
G04 #@! TO.N,Net-(D1-Pad2)*
X71120000Y-88900000D02*
X71120000Y-92710000D01*
D24*
G04 #@! TO.N,Net-(D3-Pad2)*
X101600000Y-76200000D02*
X101600000Y-72390000D01*
X99060000Y-69850000D02*
X96520000Y-69850000D01*
X101600000Y-72390000D02*
X99060000Y-69850000D01*
G04 #@! TO.N,Net-(D3-Pad1)*
X104140000Y-76200000D02*
X104140000Y-72390000D01*
X104140000Y-72390000D02*
X106680000Y-69850000D01*
X106680000Y-69850000D02*
X128270000Y-69850000D01*
X128270000Y-69850000D02*
X128270000Y-72390000D01*
G04 #@! TO.N,Net-(J1-Pad3)*
X120650000Y-80010000D02*
X120650000Y-81280000D01*
X123190000Y-83820000D02*
X123190000Y-85090000D01*
X120650000Y-81280000D02*
X123190000Y-83820000D01*
G04 #@! TO.N,Net-(LCD1-Pad2)*
X123190000Y-72390000D02*
X123190000Y-74930000D01*
X123190000Y-74930000D02*
X123190000Y-74930000D01*
X123190000Y-74930000D02*
X123190000Y-74930000D01*
G04 #@! TO.N,Net-(LCD1-Pad1)*
X110330000Y-108490000D02*
X110330000Y-94140000D01*
X110330000Y-94140000D02*
X116680000Y-94140000D01*
X116680000Y-94140000D02*
X116680000Y-94140000D01*
X131920000Y-94140000D02*
X131920000Y-77630000D01*
X131920000Y-77630000D02*
X131760000Y-77470000D01*
X131760000Y-77470000D02*
X125730000Y-77470000D01*
X125730000Y-77470000D02*
X125730000Y-80010000D01*
D23*
G04 #@! TO.N,Net-(R1-Pad1)*
X100330000Y-34290000D02*
X100330000Y-55880000D01*
X100330000Y-55880000D02*
X87630000Y-68580000D01*
X87630000Y-68580000D02*
X76200000Y-68580000D01*
D24*
G04 #@! TO.N,Net-(R2-Pad2)*
X111760000Y-85090000D02*
X111760000Y-81280000D01*
X123190000Y-80010000D02*
X123190000Y-76200000D01*
X123190000Y-76200000D02*
X120650000Y-76200000D01*
X120650000Y-76200000D02*
X120650000Y-76200000D01*
X120650000Y-76200000D02*
X120650000Y-76200000D01*
X115570000Y-76200000D02*
X111760000Y-76200000D01*
X111760000Y-76200000D02*
X111760000Y-81280000D01*
G04 #@! TD*
M02*
