G04 #@! TF.GenerationSoftware,KiCad,Pcbnew,(5.1.9-0-10_14)*
G04 #@! TF.CreationDate,2022-07-17T19:47:57+02:00*
G04 #@! TF.ProjectId,klara-circuitry,6b6c6172-612d-4636-9972-637569747279,rev?*
G04 #@! TF.SameCoordinates,Original*
G04 #@! TF.FileFunction,Soldermask,Bot*
G04 #@! TF.FilePolarity,Negative*
%FSLAX46Y46*%
G04 Gerber Fmt 4.6, Leading zero omitted, Abs format (unit mm)*
G04 Created by KiCad (PCBNEW (5.1.9-0-10_14)) date 2022-07-17 19:47:57*
%MOMM*%
%LPD*%
G01*
G04 APERTURE LIST*
%ADD10O,2.100000X2.100000*%
%ADD11C,2.000000*%
%ADD12C,1.900000*%
%ADD13O,2.000000X2.000000*%
%ADD14C,2.200000*%
%ADD15C,2.400000*%
%ADD16O,1.900000X1.900000*%
G04 APERTURE END LIST*
D10*
G04 #@! TO.C,LCD1*
X120490000Y-108490000D03*
X117950000Y-108490000D03*
X115410000Y-108490000D03*
X112870000Y-108490000D03*
G36*
G01*
X111180000Y-109540000D02*
X109480000Y-109540000D01*
G75*
G02*
X109280000Y-109340000I0J200000D01*
G01*
X109280000Y-107640000D01*
G75*
G02*
X109480000Y-107440000I200000J0D01*
G01*
X111180000Y-107440000D01*
G75*
G02*
X111380000Y-107640000I0J-200000D01*
G01*
X111380000Y-109340000D01*
G75*
G02*
X111180000Y-109540000I-200000J0D01*
G01*
G37*
G04 #@! TD*
D11*
G04 #@! TO.C,C2*
X92790000Y-91440000D03*
X97790000Y-91440000D03*
G04 #@! TD*
G04 #@! TO.C,U1*
G36*
G01*
X91760000Y-87110000D02*
X91760000Y-85610000D01*
G75*
G02*
X91960000Y-85410000I200000J0D01*
G01*
X93460000Y-85410000D01*
G75*
G02*
X93660000Y-85610000I0J-200000D01*
G01*
X93660000Y-87110000D01*
G75*
G02*
X93460000Y-87310000I-200000J0D01*
G01*
X91960000Y-87310000D01*
G75*
G02*
X91760000Y-87110000I0J200000D01*
G01*
G37*
D12*
X97790000Y-86360000D03*
X95250000Y-86360000D03*
G04 #@! TD*
D10*
G04 #@! TO.C,J1*
X128270000Y-85090000D03*
X125730000Y-85090000D03*
X123190000Y-85090000D03*
X120650000Y-85090000D03*
G36*
G01*
X118960000Y-86140000D02*
X117260000Y-86140000D01*
G75*
G02*
X117060000Y-85940000I0J200000D01*
G01*
X117060000Y-84240000D01*
G75*
G02*
X117260000Y-84040000I200000J0D01*
G01*
X118960000Y-84040000D01*
G75*
G02*
X119160000Y-84240000I0J-200000D01*
G01*
X119160000Y-85940000D01*
G75*
G02*
X118960000Y-86140000I-200000J0D01*
G01*
G37*
G04 #@! TD*
D13*
G04 #@! TO.C,U3*
X120650000Y-72390000D03*
X128270000Y-80010000D03*
X123190000Y-72390000D03*
X125730000Y-80010000D03*
X125730000Y-72390000D03*
X123190000Y-80010000D03*
X128270000Y-72390000D03*
G36*
G01*
X121450000Y-81010000D02*
X119850000Y-81010000D01*
G75*
G02*
X119650000Y-80810000I0J200000D01*
G01*
X119650000Y-79210000D01*
G75*
G02*
X119850000Y-79010000I200000J0D01*
G01*
X121450000Y-79010000D01*
G75*
G02*
X121650000Y-79210000I0J-200000D01*
G01*
X121650000Y-80810000D01*
G75*
G02*
X121450000Y-81010000I-200000J0D01*
G01*
G37*
G04 #@! TD*
G04 #@! TO.C,R2*
X111760000Y-85090000D03*
D11*
X101600000Y-85090000D03*
G04 #@! TD*
D13*
G04 #@! TO.C,R3*
X101600000Y-81280000D03*
D11*
X111760000Y-81280000D03*
G04 #@! TD*
D14*
G04 #@! TO.C,D3*
X101600000Y-76200000D03*
G36*
G01*
X105240000Y-75300000D02*
X105240000Y-77100000D01*
G75*
G02*
X105040000Y-77300000I-200000J0D01*
G01*
X103240000Y-77300000D01*
G75*
G02*
X103040000Y-77100000I0J200000D01*
G01*
X103040000Y-75300000D01*
G75*
G02*
X103240000Y-75100000I200000J0D01*
G01*
X105040000Y-75100000D01*
G75*
G02*
X105240000Y-75300000I0J-200000D01*
G01*
G37*
G04 #@! TD*
D15*
G04 #@! TO.C,CS1*
X86280000Y-100330000D03*
G36*
G01*
X80080000Y-101330000D02*
X80080000Y-99330000D01*
G75*
G02*
X80280000Y-99130000I200000J0D01*
G01*
X82280000Y-99130000D01*
G75*
G02*
X82480000Y-99330000I0J-200000D01*
G01*
X82480000Y-101330000D01*
G75*
G02*
X82280000Y-101530000I-200000J0D01*
G01*
X80280000Y-101530000D01*
G75*
G02*
X80080000Y-101330000I0J200000D01*
G01*
G37*
G04 #@! TD*
G04 #@! TO.C,CS2*
X86280000Y-77470000D03*
G36*
G01*
X80080000Y-78470000D02*
X80080000Y-76470000D01*
G75*
G02*
X80280000Y-76270000I200000J0D01*
G01*
X82280000Y-76270000D01*
G75*
G02*
X82480000Y-76470000I0J-200000D01*
G01*
X82480000Y-78470000D01*
G75*
G02*
X82280000Y-78670000I-200000J0D01*
G01*
X80280000Y-78670000D01*
G75*
G02*
X80080000Y-78470000I0J200000D01*
G01*
G37*
G04 #@! TD*
D13*
G04 #@! TO.C,R4*
X96520000Y-69850000D03*
D11*
X96520000Y-80010000D03*
G04 #@! TD*
D13*
G04 #@! TO.C,D1*
X71120000Y-92710000D03*
G36*
G01*
X71920000Y-103870000D02*
X70320000Y-103870000D01*
G75*
G02*
X70120000Y-103670000I0J200000D01*
G01*
X70120000Y-102070000D01*
G75*
G02*
X70320000Y-101870000I200000J0D01*
G01*
X71920000Y-101870000D01*
G75*
G02*
X72120000Y-102070000I0J-200000D01*
G01*
X72120000Y-103670000D01*
G75*
G02*
X71920000Y-103870000I-200000J0D01*
G01*
G37*
G04 #@! TD*
G04 #@! TO.C,R1*
X71120000Y-88900000D03*
D11*
X81280000Y-88900000D03*
G04 #@! TD*
D16*
G04 #@! TO.C,D2*
X71120000Y-77470000D03*
G36*
G01*
X71870000Y-86040000D02*
X70370000Y-86040000D01*
G75*
G02*
X70170000Y-85840000I0J200000D01*
G01*
X70170000Y-84340000D01*
G75*
G02*
X70370000Y-84140000I200000J0D01*
G01*
X71870000Y-84140000D01*
G75*
G02*
X72070000Y-84340000I0J-200000D01*
G01*
X72070000Y-85840000D01*
G75*
G02*
X71870000Y-86040000I-200000J0D01*
G01*
G37*
G04 #@! TD*
D11*
G04 #@! TO.C,SC1*
X103930000Y-34290000D03*
G36*
G01*
X99330000Y-34977500D02*
X99330000Y-33602500D01*
G75*
G02*
X99642500Y-33290000I312500J0D01*
G01*
X101017500Y-33290000D01*
G75*
G02*
X101330000Y-33602500I0J-312500D01*
G01*
X101330000Y-34977500D01*
G75*
G02*
X101017500Y-35290000I-312500J0D01*
G01*
X99642500Y-35290000D01*
G75*
G02*
X99330000Y-34977500I0J312500D01*
G01*
G37*
G04 #@! TD*
M02*
