M48
INCH,TZ
T1C0.0157
T2C0.0236
T3C0.0295
T4C0.0315
T5C0.0354
T6C0.0394
%
G90
G05
T1
X30000Y-27000
X32000Y-32500
X43500Y-36000
X43500Y-36000
X43500Y-36000
X45500Y-30000
X45937Y-37063
X46000Y-36000
X47500Y-30000
X47500Y-30000
X47500Y-36000
X48500Y-29500
X48500Y-29500
X51937Y-37063
T2
X39500Y-13500
X40917Y-13500
T3
X28000Y-30500
X28000Y-33500
T4
X28000Y-35000
X28000Y-36500
X28000Y-40500
X32000Y-35000
X36500Y-34000
X36531Y-36000
X37500Y-34000
X38000Y-27500
X38000Y-31500
X38500Y-34000
X38500Y-36000
X40000Y-32000
X40000Y-33500
X44000Y-32000
X44000Y-33500
X47500Y-28500
X47500Y-31500
X48500Y-28500
X48500Y-31500
X49500Y-28500
X49500Y-31500
X50500Y-28500
X50500Y-31500
T5
X40000Y-30000
X41000Y-30000
T6
X32000Y-30500
X32000Y-39500
X33969Y-30500
X33969Y-39500
X43437Y-42713
X44437Y-42713
X45437Y-42713
X46437Y-42713
X46500Y-33500
X47437Y-42713
X47500Y-33500
X48500Y-33500
X49500Y-33500
X50500Y-33500
T0
M30
