<?xml version="1.0" encoding="UTF-8" standalone="no"?>
<!-- Created with Inkscape (http://www.inkscape.org/) -->

<svg
   width="100.0mm"
   height="100.0mm"
   viewBox="0 0 100.0 100.0"
   version="1.1"
   id="svg1148"
   sodipodi:docname="board-shenzhen.svg"
   inkscape:version="1.1.2 (b8e25be833, 2022-02-05)"
   xmlns:inkscape="http://www.inkscape.org/namespaces/inkscape"
   xmlns:sodipodi="http://sodipodi.sourceforge.net/DTD/sodipodi-0.dtd"
   xmlns="http://www.w3.org/2000/svg"
   xmlns:svg="http://www.w3.org/2000/svg">
  <sodipodi:namedview
     id="namedview1150"
     pagecolor="#ffffff"
     bordercolor="#666666"
     borderopacity="1.0"
     inkscape:pageshadow="2"
     inkscape:pageopacity="0.0"
     inkscape:pagecheckerboard="0"
     inkscape:document-units="mm"
     showgrid="false"
     inkscape:zoom="1.894824"
     inkscape:cx="177.85293"
     inkscape:cy="179.96394"
     inkscape:window-width="1625"
     inkscape:window-height="1003"
     inkscape:window-x="48"
     inkscape:window-y="18"
     inkscape:window-maximized="1"
     inkscape:current-layer="g1242" />
  <defs
     id="defs1145">
    <clipPath
       clipPathUnits="userSpaceOnUse"
       id="clipPath1605">
      <path
         d="M 0,283.465 H 283.465 V 0 H 0 Z"
         id="path1603" />
    </clipPath>
    <pattern
       id="EMFhbasepattern"
       patternUnits="userSpaceOnUse"
       width="6"
       height="6"
       x="0"
       y="0" />
    <pattern
       id="EMFhbasepattern-8"
       patternUnits="userSpaceOnUse"
       width="6"
       height="6"
       x="0"
       y="0" />
    <pattern
       id="EMFhbasepattern-6"
       patternUnits="userSpaceOnUse"
       width="6"
       height="6"
       x="0"
       y="0" />
    <pattern
       id="EMFhbasepattern-3"
       patternUnits="userSpaceOnUse"
       width="6"
       height="6"
       x="0"
       y="0" />
  </defs>
  <g
     inkscape:label="[fixed] BG"
     inkscape:groupmode="layer"
     sodipodi:insensitive="true"
     id="g1240"
     style="display:none">
    <rect
       x="0"
       y="0"
       width="100"
       height="100"
       style="fill:#ffffff;fill-opacity:1;stroke:none"
       id="rect1238" />
  </g>
  <g
     inkscape:label="Edge.Cuts"
     inkscape:groupmode="layer"
     id="g1242"
     style="display:inline">
    <path
       style="fill:none;stroke:#000000;stroke-width:0.0881944px;stroke-linecap:butt;stroke-linejoin:miter;stroke-miterlimit:10;stroke-dasharray:none;stroke-opacity:1"
       d="M 73.2731 6.98008 L 73.2731 77.5356 L 70.2745 77.5356 L 70.2745 85.0322 L 6.24535 85.0322 L 6.24535 77.5356 L 3.24674 77.5356 L 3.24674 6.98008 L 6.24535 6.98008 L 6.24535 0.98286 L 70.2745 0.98286 L 70.2745 6.98008 L 73.2731 6.98008"
       id="path1387" />
    <path
       style="fill:none;stroke:#000000;stroke-width:0.0881944px;stroke-linecap:butt;stroke-linejoin:miter;stroke-miterlimit:10;stroke-dasharray:none;stroke-opacity:1"
       d="M 17.2697 15.9759 L 17.7106 15.9759 L 17.7106 31.7627 L 17.2697 31.5863 L 16.8287 31.4099 L 16.8287 15.9759 L 17.2697 15.9759 L 17.2697 15.9759"
       id="path1389" />
    <path
       style="fill:none;stroke:#000000;stroke-width:0.0881944px;stroke-linecap:butt;stroke-linejoin:miter;stroke-miterlimit:10;stroke-dasharray:none;stroke-opacity:1"
       d="M 23.3551 31.1454 L 23.1566 31.2253 L 22.9582 31.3217 L 22.7598 31.4182 L 22.5613 31.4981 L 18.4162 15.8877 L 18.616 15.8726 L 18.8241 15.8326 L 19.2981 15.7113 L 23.3551 31.1454"
       id="path1391" />
    <path
       style="fill:none;stroke:#000000;stroke-width:0.0881944px;stroke-linecap:butt;stroke-linejoin:miter;stroke-miterlimit:10;stroke-dasharray:none;stroke-opacity:1"
       d="M 27.5884 27.0002 L 27.0592 27.794 L 19.9155 15.4467 L 20.1125 15.3282 L 20.3013 15.2263 L 20.4736 15.1243 L 20.621 15.0058 L 27.5884 27.0002"
       id="path1393" />
    <path
       style="fill:none;stroke:#000000;stroke-width:0.0881944px;stroke-linecap:butt;stroke-linejoin:miter;stroke-miterlimit:10;stroke-dasharray:none;stroke-opacity:1"
       d="M 29.7051 21.7967 L 29.4405 22.8551 L 21.1502 14.5648 L 21.3349 14.4187 L 21.503 14.2561 L 21.6711 14.0935 L 21.8558 13.9474 L 29.7051 21.7967"
       id="path1395" />
    <path
       style="fill:none;stroke:#000000;stroke-width:0.0881944px;stroke-linecap:butt;stroke-linejoin:miter;stroke-miterlimit:10;stroke-dasharray:none;stroke-opacity:1"
       d="M 30.3224 17.0342 L 30.3224 17.0342 L 30.3087 17.2851 L 30.2783 17.5193 L 30.248 17.7536 L 30.2342 18.0044 L 22.2085 13.4183 L 22.4621 13.0214 L 22.5682 12.823 L 22.6495 12.6245 L 30.3224 17.0342"
       id="path1397" />
    <path
       style="fill:none;stroke:#000000;stroke-width:0.0881944px;stroke-linecap:butt;stroke-linejoin:miter;stroke-miterlimit:10;stroke-dasharray:none;stroke-opacity:1"
       d="M 30.0578 13.9474 L 22.9141 12.0072 L 23.1787 11.1252 L 29.8815 12.8891 L 29.9338 13.1537 L 29.9697 13.4183 L 30.0055 13.6829 L 30.0578 13.9474 L 30.0578 13.9474"
       id="path1399" />
    <path
       style="fill:none;stroke:#000000;stroke-width:0.0881944px;stroke-linecap:butt;stroke-linejoin:miter;stroke-miterlimit:10;stroke-dasharray:none;stroke-opacity:1"
       d="M 23.2669 10.5079 L 23.2669 9.97869 L 23.2669 9.53772 L 28.9113 9.53772 L 29.0546 10.0228 L 29.147 10.2571 L 29.2641 10.5079 L 23.2669 10.5079"
       id="path1401" />
    <path
       style="fill:none;stroke:#000000;stroke-width:0.0881944px;stroke-linecap:butt;stroke-linejoin:miter;stroke-miterlimit:10;stroke-dasharray:none;stroke-opacity:1"
       d="M 27.9412 7.59744 L 23.1787 8.92036 L 23.0464 8.44631 L 22.9141 8.03842 L 27.5002 6.80369 L 27.7538 7.20057 L 27.8599 7.39901 L 27.9412 7.59744 L 27.9412 7.59744"
       id="path1403" />
    <path
       style="fill:none;stroke:#000000;stroke-width:0.0881944px;stroke-linecap:butt;stroke-linejoin:miter;stroke-miterlimit:10;stroke-dasharray:none;stroke-opacity:1"
       d="M 26.3537 5.30439 L 22.6495 7.42105 L 22.5682 7.22262 L 22.4621 7.02418 L 22.2085 6.6273 L 25.7363 4.59883 L 25.8824 4.78349 L 26.045 4.95161 L 26.2076 5.11973 L 26.3537 5.30439 L 26.3537 5.30439"
       id="path1405" />
    <path
       style="fill:none;stroke:#000000;stroke-width:0.0881944px;stroke-linecap:butt;stroke-linejoin:miter;stroke-miterlimit:10;stroke-dasharray:none;stroke-opacity:1"
       d="M 11.8898 12.6245 L 11.9711 12.823 L 12.0772 13.0214 L 12.3308 13.4183 L 9.33215 15.094 L 9.38452 14.8294 L 9.42035 14.5648 L 9.45618 14.3002 L 9.50854 14.0356 L 11.8898 12.6245"
       id="path1407" />
    <path
       style="fill:none;stroke:#000000;stroke-width:0.0881944px;stroke-linecap:butt;stroke-linejoin:miter;stroke-miterlimit:10;stroke-dasharray:none;stroke-opacity:1"
       d="M 13.3891 14.5648 L 9.33215 18.6217 L 9.32113 18.0044 L 9.29495 17.704 L 9.24396 17.387 L 12.7717 13.9474 L 13.0473 14.2561 L 13.2058 14.4187 L 13.3891 14.5648 L 13.3891 14.5648"
       id="path1409" />
    <path
       style="fill:none;stroke:#000000;stroke-width:0.0881944px;stroke-linecap:butt;stroke-linejoin:miter;stroke-miterlimit:10;stroke-dasharray:none;stroke-opacity:1"
       d="M 13.9183 15.0058 L 14.1167 15.1243 L 14.3151 15.2263 L 14.5136 15.3282 L 14.712 15.4467 L 10.2141 23.2079 L 10.097 22.8909 L 10.0046 22.5905 L 9.86132 21.9731 L 13.9183 15.0058"
       id="path1411" />
    <path
       style="fill:none;stroke:#000000;stroke-width:0.0881944px;stroke-linecap:butt;stroke-linejoin:miter;stroke-miterlimit:10;stroke-dasharray:none;stroke-opacity:1"
       d="M 15.3294 15.7113 L 15.7262 15.8326 L 15.9247 15.8726 L 16.1231 15.8877 L 12.8599 28.3231 L 12.1544 27.353 L 15.3294 15.7113"
       id="path1413" />
    <path
       style="fill:none;stroke:#000000;stroke-width:0.0881944px;stroke-linecap:butt;stroke-linejoin:miter;stroke-miterlimit:10;stroke-dasharray:none;stroke-opacity:1"
       d="M 12.3308 13.4183 L 9.33215 15.094 L 9.38452 14.8294 L 9.42035 14.5648 L 9.45618 14.3002 L 9.50854 14.0356 L 11.8898 12.6245 L 11.9711 12.823 L 12.0772 13.0214 L 12.3308 13.4183 L 12.3308 13.4183"
       id="path1415" />
    <path
       style="fill:none;stroke:#000000;stroke-width:0.0881944px;stroke-linecap:butt;stroke-linejoin:miter;stroke-miterlimit:10;stroke-dasharray:none;stroke-opacity:1"
       d="M 13.3891 14.5648 L 9.33215 18.6217 L 9.32113 18.0044 L 9.29495 17.704 L 9.24396 17.387 L 12.7717 13.9474 L 13.0473 14.2561 L 13.2058 14.4187 L 13.3891 14.5648 L 13.3891 14.5648"
       id="path1417" />
    <path
       style="fill:none;stroke:#000000;stroke-width:0.0881944px;stroke-linecap:butt;stroke-linejoin:miter;stroke-miterlimit:10;stroke-dasharray:none;stroke-opacity:1"
       d="M 14.712 15.4467 L 10.2141 23.2079 L 10.097 22.8909 L 10.0046 22.5905 L 9.86132 21.9731 L 13.9183 15.0058 L 14.1167 15.1243 L 14.3151 15.2263 L 14.5136 15.3282 L 14.712 15.4467 L 14.712 15.4467"
       id="path1419" />
    <path
       style="fill:none;stroke:#000000;stroke-width:0.0881944px;stroke-linecap:butt;stroke-linejoin:miter;stroke-miterlimit:10;stroke-dasharray:none;stroke-opacity:1"
       d="M 15.3294 15.7113 L 15.7262 15.8326 L 15.9247 15.8726 L 16.1231 15.8877 L 12.8599 28.3231 L 12.1544 27.353 L 15.3294 15.7113"
       id="path1421" />
    <path
       style="fill:none;stroke:#000000;stroke-width:0.0881944px;stroke-linecap:butt;stroke-linejoin:miter;stroke-miterlimit:10;stroke-dasharray:none;stroke-opacity:1"
       d="M 17.2697 15.9759 L 17.7106 15.9759 L 17.7106 31.7627 L 17.2697 31.5863 L 16.8287 31.4099 L 16.8287 15.9759 L 17.2697 15.9759 L 17.2697 15.9759"
       id="path1423" />
    <path
       style="fill:none;stroke:#000000;stroke-width:0.0881944px;stroke-linecap:butt;stroke-linejoin:miter;stroke-miterlimit:10;stroke-dasharray:none;stroke-opacity:1"
       d="M 19.2981 15.7113 L 23.3551 31.1454 L 23.1566 31.2253 L 22.9582 31.3217 L 22.7598 31.4182 L 22.5613 31.4981 L 18.4162 15.8877 L 18.616 15.8726 L 18.8241 15.8326 L 19.2981 15.7113 L 19.2981 15.7113"
       id="path1425" />
    <path
       style="fill:none;stroke:#000000;stroke-width:0.0881944px;stroke-linecap:butt;stroke-linejoin:miter;stroke-miterlimit:10;stroke-dasharray:none;stroke-opacity:1"
       d="M 22.6495 7.42105 L 22.5682 7.22262 L 22.4621 7.02418 L 22.2085 6.6273 L 25.7363 4.59883 L 25.8824 4.78349 L 26.045 4.95161 L 26.2076 5.11973 L 26.3537 5.30439 L 22.6495 7.42105"
       id="path1427" />
    <path
       style="fill:none;stroke:#000000;stroke-width:0.0881944px;stroke-linecap:butt;stroke-linejoin:miter;stroke-miterlimit:10;stroke-dasharray:none;stroke-opacity:1"
       d="M 20.621 15.0058 L 27.5884 27.0002 L 27.0592 27.794 L 19.9155 15.4467 L 20.1125 15.3282 L 20.3013 15.2263 L 20.4736 15.1243 L 20.621 15.0058 L 20.621 15.0058"
       id="path1429" />
    <path
       style="fill:none;stroke:#000000;stroke-width:0.0881944px;stroke-linecap:butt;stroke-linejoin:miter;stroke-miterlimit:10;stroke-dasharray:none;stroke-opacity:1"
       d="M 22.9141 8.03842 L 27.5002 6.80369 L 27.7538 7.20057 L 27.8599 7.39901 L 27.9412 7.59744 L 23.1787 8.92036 L 23.0464 8.44631 L 22.9141 8.03842 L 22.9141 8.03842"
       id="path1431" />
    <path
       style="fill:none;stroke:#000000;stroke-width:0.0881944px;stroke-linecap:butt;stroke-linejoin:miter;stroke-miterlimit:10;stroke-dasharray:none;stroke-opacity:1"
       d="M 23.2669 9.53772 L 28.9113 9.53772 L 29.0546 10.0228 L 29.147 10.2571 L 29.2641 10.5079 L 23.2669 10.5079 L 23.2669 9.97869 L 23.2669 9.53772 L 23.2669 9.53772"
       id="path1433" />
    <path
       style="fill:none;stroke:#000000;stroke-width:0.0881944px;stroke-linecap:butt;stroke-linejoin:miter;stroke-miterlimit:10;stroke-dasharray:none;stroke-opacity:1"
       d="M 21.8558 13.9474 L 29.7051 21.7967 L 29.4405 22.8551 L 21.1502 14.5648 L 21.3349 14.4187 L 21.503 14.2561 L 21.6711 14.0935 L 21.8558 13.9474 L 21.8558 13.9474"
       id="path1435" />
    <path
       style="fill:none;stroke:#000000;stroke-width:0.0881944px;stroke-linecap:butt;stroke-linejoin:miter;stroke-miterlimit:10;stroke-dasharray:none;stroke-opacity:1"
       d="M 23.1787 11.1252 L 29.8815 12.8891 L 29.9338 13.1537 L 29.9697 13.4183 L 30.0055 13.6829 L 30.0578 13.9474 L 22.9141 12.0072 L 23.1787 11.1252 L 23.1787 11.1252"
       id="path1437" />
    <path
       style="fill:none;stroke:#000000;stroke-width:0.0881944px;stroke-linecap:butt;stroke-linejoin:miter;stroke-miterlimit:10;stroke-dasharray:none;stroke-opacity:1"
       d="M 30.3224 17.0342 L 30.3224 17.0342 L 30.3087 17.2851 L 30.2783 17.5193 L 30.248 17.7536 L 30.2342 18.0044 L 22.2085 13.4183 L 22.4621 13.0214 L 22.5682 12.823 L 22.6495 12.6245 L 30.3224 17.0342"
       id="path1439" />
    <path
       style="fill:none;stroke:#000000;stroke-width:0.0881944px;stroke-linecap:butt;stroke-linejoin:miter;stroke-miterlimit:10;stroke-dasharray:none;stroke-opacity:1"
       d="M 17.2697 5.56897 L 16.961 5.58 L 16.7984 5.60618 L 16.6523 5.65717 L 17.0933 6.45092 L 17.2697 6.45092 L 17.629 6.46922 L 17.9783 6.52292 L 18.3157 6.61021 L 18.6394 6.72928 L 18.9476 6.87832 L 19.2385 7.05553 L 19.5103 7.25909 L 19.7611 7.4872 L 19.9893 7.73805 L 20.1928 8.00982 L 20.37 8.30072 L 20.5191 8.60892 L 20.6381 8.93263 L 20.7254 9.27004 L 20.7791 9.61933 L 20.7974 9.97869 L 20.7791 10.3536 L 20.7254 10.7165 L 20.6381 11.0656 L 20.5191 11.3995 L 20.37 11.7162 L 20.1928 12.0142 L 19.9893 12.2918 L 19.7611 12.5474 L 19.5103 12.7791 L 19.2385 12.9854 L 18.9476 13.1646 L 18.6394 13.3149 L 18.3157 13.4348 L 17.9783 13.5225 L 17.629 13.5763 L 17.2697 13.5947 L 16.9103 13.5763 L 16.561 13.5225 L 16.2236 13.4348 L 15.8999 13.3149 L 15.5917 13.1646 L 15.3008 12.9854 L 15.029 12.7791 L 14.7782 12.5474 L 14.5501 12.2918 L 14.3465 12.0142 L 14.1693 11.7162 L 14.0202 11.3995 L 13.9012 11.0656 L 13.8139 10.7165 L 13.7602 10.3536 L 13.7419 9.97869 L 13.7539 9.71428 L 13.7887 9.4509 L 13.8442 9.18959 L 13.9183 8.93138 L 14.0089 8.67731 L 14.1139 8.4284 L 14.3592 7.95022 L 13.9183 7.15647 L 13.6702 7.4369 L 13.4552 7.74627 L 13.2733 8.08045 L 13.1245 8.43529 L 13.0088 8.80667 L 12.9261 9.19046 L 12.8765 9.58251 L 12.8599 9.97869 L 12.8823 10.4362 L 12.9481 10.881 L 13.0553 11.3108 L 13.2017 11.7233 L 13.3853 12.1162 L 13.6041 12.4871 L 13.8559 12.8337 L 14.1387 13.1537 L 14.4505 13.4448 L 14.7892 13.7046 L 15.1526 13.9308 L 15.5388 14.1211 L 15.9457 14.2731 L 16.3712 14.3846 L 16.8132 14.4532 L 17.2697 14.4766 L 17.7271 14.4532 L 18.1719 14.3846 L 18.6017 14.2731 L 19.0142 14.1211 L 19.4071 13.9308 L 19.778 13.7046 L 20.1246 13.4448 L 20.4447 13.1537 L 20.7357 12.8337 L 20.9955 12.4871 L 21.2217 12.1162 L 21.412 11.7233 L 21.5641 11.3108 L 21.6756 10.881 L 21.7442 10.4362 L 21.7676 9.97869 L 21.7442 9.53675 L 21.6756 9.10553 L 21.5641 8.68749 L 21.412 8.28508 L 21.2217 7.90076 L 20.9955 7.53698 L 20.7357 7.1962 L 20.4447 6.88086 L 20.1246 6.59344 L 19.778 6.33637 L 19.4071 6.11211 L 19.0142 5.92313 L 18.6017 5.77187 L 18.1719 5.66078 L 17.7271 5.59233 L 17.2697 5.56897 L 17.2697 5.56897"
       id="path1441" />
    <path
       style="fill:none;stroke:#000000;stroke-width:0.0881944px;stroke-linecap:butt;stroke-linejoin:miter;stroke-miterlimit:10;stroke-dasharray:none;stroke-opacity:1"
       d="M 66.2176 23.0315 L 65.9255 23.5094 L 65.6122 23.9675 L 65.2786 24.4053 L 64.9258 24.8226 L 64.5547 25.2191 L 64.1663 25.5945 L 63.7616 25.9485 L 63.3416 26.2809 L 62.9072 26.5913 L 62.4595 26.8794 L 61.9994 27.145 L 61.5279 27.3878 L 61.0461 27.6074 L 60.5548 27.8037 L 60.055 27.9762 L 59.5479 28.1247 L 59.0342 28.2489 L 58.5151 28.3486 L 57.9915 28.4234 L 57.4644 28.473 L 56.9348 28.4972 L 56.4037 28.4956 L 55.872 28.468 L 55.3407 28.4141 L 54.8109 28.3336 L 54.2834 28.2261 L 53.7594 28.0915 L 53.2397 27.9294 L 52.7254 27.7395 L 52.2175 27.5215 L 51.7168 27.2752 L 51.2245 27.0002 L 50.6981 26.7053 L 50.1882 26.3608 L 49.7114 25.9832 L 49.2842 25.5891 L 50.0785 25.5944 L 50.8717 25.5447 L 51.6608 25.4407 L 52.4427 25.2832 L 53.2142 25.073 L 53.9723 24.8109 L 54.7139 24.4976 L 55.4358 24.1339 L 56.135 23.7206 L 56.8083 23.2585 L 57.4527 22.7483 L 58.0651 22.1909 L 58.6423 21.5869 L 59.1813 20.9372 L 59.4355 20.5954 L 59.679 20.2425 L 59.9113 19.8786 L 60.1322 19.5037 L 60.3479 19.1211 L 60.5488 18.7342 L 60.9061 17.9491 L 61.2048 17.1513 L 61.4454 16.3439 L 61.6287 15.5297 L 61.7553 14.7117 L 61.8258 13.893 L 61.8409 13.0765 L 61.8012 12.2652 L 61.7074 11.462 L 61.5601 10.6699 L 61.36 9.89188 L 61.1076 9.13092 L 60.8038 8.38999 L 60.449 7.67205 L 60.044 6.98008 L 60.5855 7.19368 L 61.1354 7.43208 L 61.6687 7.68702 L 62.1606 7.95022 L 62.6466 8.25005 L 63.1121 8.57014 L 63.557 8.90959 L 63.9808 9.26745 L 64.3834 9.64283 L 64.7645 10.0348 L 65.1238 10.4424 L 65.461 10.8648 L 65.7759 11.301 L 66.0681 11.7501 L 66.3374 12.2111 L 66.5836 12.6833 L 66.8063 13.1655 L 67.0053 13.657 L 67.1803 14.1568 L 67.331 14.664 L 67.4572 15.1777 L 67.5585 15.6968 L 67.6348 16.2206 L 67.6857 16.7481 L 67.7109 17.2784 L 67.7103 17.8105 L 67.6834 18.3436 L 67.6301 18.8767 L 67.55 19.4089 L 67.4429 19.9392 L 67.3085 20.4668 L 67.1465 20.9908 L 66.9567 21.5101 L 66.7388 22.024 L 66.4925 22.5314 L 66.2176 23.0315 L 66.2176 23.0315"
       id="path1443" />
    <path
       style="fill:none;stroke:#000000;stroke-width:0.0881944px;stroke-linecap:butt;stroke-linejoin:miter;stroke-miterlimit:10;stroke-dasharray:none;stroke-opacity:1"
       d="M 52.6356 9.27314 L 53.253 11.037 L 51.8419 9.8905 L 50.2544 11.037 L 50.6953 8.92036 L 48.3141 6.98008 L 50.9599 7.50925 L 51.3127 6.00994 L 51.9301 7.59744 L 54.3113 8.03842 L 52.6356 9.27314"
       id="path1445" />
    <path
       style="fill:none;stroke:#000000;stroke-width:0.0881944px;stroke-linecap:butt;stroke-linejoin:miter;stroke-miterlimit:10;stroke-dasharray:none;stroke-opacity:1"
       d="M 43.1106 14.3002 L 44.7863 16.1523 L 47.2558 15.5349 L 44.8745 16.6815 L 43.9926 18.8863 L 44.2572 16.5051 L 43.1106 14.3002"
       id="path1447" />
    <path
       style="fill:none;stroke:#000000;stroke-width:0.0881944px;stroke-linecap:butt;stroke-linejoin:miter;stroke-miterlimit:10;stroke-dasharray:none;stroke-opacity:1"
       d="M 53.8703 17.9162 L 53.8545 18.0478 L 53.8097 18.1753 L 53.7401 18.2945 L 53.6499 18.4013 L 53.5431 18.4915 L 53.4239 18.5611 L 53.2964 18.6059 L 53.1648 18.6217 L 53.0079 18.6059 L 52.8685 18.5611 L 52.7478 18.4915 L 52.6466 18.4013 L 52.5662 18.2945 L 52.5075 18.1753 L 52.4715 18.0478 L 52.4592 17.9162 L 52.4715 17.7593 L 52.5075 17.6199 L 52.5662 17.4992 L 52.6466 17.3981 L 52.7478 17.3176 L 52.8685 17.2589 L 53.0079 17.2229 L 53.1648 17.2106 L 53.2964 17.2229 L 53.4239 17.2589 L 53.5431 17.3176 L 53.6499 17.3981 L 53.7401 17.4992 L 53.8097 17.6199 L 53.8545 17.7593 L 53.8703 17.9162 L 53.8703 17.9162"
       id="path1449" />
  </g>
</svg>
