<?xml version="1.0" encoding="UTF-8" standalone="no"?>
<!-- Created with Inkscape (http://www.inkscape.org/) -->

<svg
   version="1.1"
   id="svg824"
   xml:space="preserve"
   width="1133.8586"
   height="944.88135"
   viewBox="0 0 1133.8586 944.88135"
   sodipodi:docname="penta-creature.svg"
   inkscape:version="1.1.2 (b8e25be833, 2022-02-05)"
   xmlns:inkscape="http://www.inkscape.org/namespaces/inkscape"
   xmlns:sodipodi="http://sodipodi.sourceforge.net/DTD/sodipodi-0.dtd"
   xmlns="http://www.w3.org/2000/svg"
   xmlns:svg="http://www.w3.org/2000/svg"><defs
     id="defs828" /><sodipodi:namedview
     id="namedview826"
     pagecolor="#ffffff"
     bordercolor="#666666"
     borderopacity="1.0"
     inkscape:pageshadow="2"
     inkscape:pageopacity="0.0"
     inkscape:pagecheckerboard="0"
     showgrid="false"
     inkscape:zoom="0.77611085"
     inkscape:cx="566.92932"
     inkscape:cy="472.87059"
     inkscape:window-width="1623"
     inkscape:window-height="1003"
     inkscape:window-x="50"
     inkscape:window-y="18"
     inkscape:window-maximized="1"
     inkscape:current-layer="g830" /><g
     id="g830"
     inkscape:groupmode="layer"
     inkscape:label="penta-creature"
     transform="matrix(1.3333333,0,0,-1.3333333,0,944.88133)"><g
       id="g832"
       transform="translate(793.6982,575.4407)"><path
         d="m 0,0 v -199.85 h -8.5 v -21.26 h -181.42 v 21.26 h -8.5 V 0 h 8.5 V 17 H -8.5 V 0 Z"
         style="fill:none;stroke:#231f20;stroke-width:0.283;stroke-linecap:butt;stroke-linejoin:miter;stroke-miterlimit:10;stroke-dasharray:none;stroke-opacity:1"
         id="path834" /></g><path
       d="m 595.275,606.376 h 198.426 v 85.04 H 595.275 Z"
       style="fill:none;stroke:#231f20;stroke-width:0.283;stroke-linecap:butt;stroke-linejoin:miter;stroke-miterlimit:10;stroke-dasharray:none;stroke-opacity:1"
       id="path836" /><g
       id="g838"
       transform="translate(250.0977,333.8094)"><path
         d="M 0,0 7.86,-21.12 H -14.82 L -22.68,0 h -119.08 l -17.63,-21.12 h -22.67 l 17.62,21.12 -50.91,156.7 0.04,0.06 30.43,43.46 4.52,-3.16 9.35,13.36 41.67,59.55 h 16.14 l 0.04,-0.06 160.7,-215.56 z"
         style="fill:none;stroke:#231f20;stroke-width:0.283;stroke-linecap:butt;stroke-linejoin:miter;stroke-miterlimit:10;stroke-dasharray:none;stroke-opacity:1"
         id="path840" /></g><g
       id="g842"
       transform="translate(256.8477,393.3997)"><path
         d="m 0,0 12.12,-15.84 -25.63,-29.29 h -147.38 l -18.07,55.6 8.63,11.97 -13.06,1.69 -22.94,70.59 70.87,101.2 h 8.05 L 20.59,-2.61 6.24,-0.75 6.27,-0.8 Z"
         style="fill:none;stroke:#ed1c24;stroke-width:0.283;stroke-linecap:butt;stroke-linejoin:miter;stroke-miterlimit:10;stroke-dasharray:none;stroke-opacity:1"
         id="path844" /></g><g
       id="g846"
       transform="translate(257.3037,584.6155)"><path
         d="M 0,0 -7.86,21.12 H 14.82 L 22.68,0 h 119.08 l 17.63,21.12 h 22.67 L 164.44,0 l 50.91,-156.7 -0.04,-0.06 -30.43,-43.46 -4.52,3.16 -9.35,-13.36 -41.67,-59.55 H 113.2 l -0.04,0.06 -160.7,215.56 z"
         style="fill:none;stroke:#231f20;stroke-width:0.283;stroke-linecap:butt;stroke-linejoin:miter;stroke-miterlimit:10;stroke-dasharray:none;stroke-opacity:1"
         id="path848" /></g><g
       id="g850"
       transform="translate(250.5537,525.0257)"><path
         d="m 0,0 -12.12,15.84 25.63,29.29 h 147.38 l 18.07,-55.6 -8.63,-11.97 13.06,-1.69 22.94,-70.59 -70.87,-101.2 h -8.05 L -20.59,2.61 -6.24,0.75 -6.27,0.8 Z"
         style="fill:none;stroke:#ed1c24;stroke-width:0.283;stroke-linecap:butt;stroke-linejoin:miter;stroke-miterlimit:10;stroke-dasharray:none;stroke-opacity:1"
         id="path852" /></g><path
       d="M 90.708,654.803 H 28.346 v 25.512 h 62.362 z"
       style="fill:none;stroke:#231f20;stroke-width:0.283;stroke-linecap:butt;stroke-linejoin:miter;stroke-miterlimit:10;stroke-dasharray:none;stroke-opacity:1"
       id="path854" /><path
       d="M 45.354,660.472 H 34.015 v 14.173 h 11.339 z"
       style="fill:none;stroke:#ed1c24;stroke-width:0.283;stroke-linecap:butt;stroke-linejoin:miter;stroke-miterlimit:10;stroke-dasharray:none;stroke-opacity:1"
       id="path856" /><path
       d="m 59.527,660.472 h -8.504 v 14.173 h 8.504 z"
       style="fill:none;stroke:#ed1c24;stroke-width:0.283;stroke-linecap:butt;stroke-linejoin:miter;stroke-miterlimit:10;stroke-dasharray:none;stroke-opacity:1"
       id="path858" /><path
       d="m 70.866,660.472 h -5.669 v 14.173 h 5.669 z"
       style="fill:none;stroke:#ed1c24;stroke-width:0.283;stroke-linecap:butt;stroke-linejoin:miter;stroke-miterlimit:10;stroke-dasharray:none;stroke-opacity:1"
       id="path860" /><path
       d="m 79.37,660.472 h -2.834 v 14.173 h 2.834 z"
       style="fill:none;stroke:#ed1c24;stroke-width:0.283;stroke-linecap:butt;stroke-linejoin:miter;stroke-miterlimit:10;stroke-dasharray:none;stroke-opacity:1"
       id="path862" /><g
       id="g864"
       transform="translate(85.0396,674.6458)"><path
         d="M 0,0 V -14.173"
         style="fill:none;stroke:#ed1c24;stroke-width:0.283;stroke-linecap:butt;stroke-linejoin:miter;stroke-miterlimit:10;stroke-dasharray:none;stroke-opacity:1"
         id="path866" /></g></g></svg>
