<?xml version="1.0" encoding="UTF-8" standalone="no"?>
<!-- Created with Inkscape (http://www.inkscape.org/) -->

<svg
   version="1.1"
   id="svg970"
   xml:space="preserve"
   width="491.33868"
   height="377.95334"
   viewBox="0 0 491.33868 377.95334"
   sodipodi:docname="small-creature.svg"
   inkscape:version="1.1.2 (b8e25be833, 2022-02-05)"
   xmlns:inkscape="http://www.inkscape.org/namespaces/inkscape"
   xmlns:sodipodi="http://sodipodi.sourceforge.net/DTD/sodipodi-0.dtd"
   xmlns="http://www.w3.org/2000/svg"
   xmlns:svg="http://www.w3.org/2000/svg"><defs
     id="defs974"><clipPath
       clipPathUnits="userSpaceOnUse"
       id="clipPath996"><path
         d="M 0,283.465 H 368.504 V 0 H 0 Z"
         id="path994" /></clipPath></defs><sodipodi:namedview
     id="namedview972"
     pagecolor="#ffffff"
     bordercolor="#666666"
     borderopacity="1.0"
     inkscape:pageshadow="2"
     inkscape:pageopacity="0.0"
     inkscape:pagecheckerboard="0"
     showgrid="false"
     inkscape:zoom="1.9023512"
     inkscape:cx="245.48569"
     inkscape:cy="188.71384"
     inkscape:window-width="1623"
     inkscape:window-height="1003"
     inkscape:window-x="50"
     inkscape:window-y="18"
     inkscape:window-maximized="1"
     inkscape:current-layer="g976" /><g
     id="g976"
     inkscape:groupmode="layer"
     inkscape:label="small-creature"
     transform="matrix(1.3333333,0,0,-1.3333333,0,377.95333)"><g
       id="g978"
       transform="translate(150.0859,195.7331)"><path
         d="m 0,0 0.726,-2.72 -5.235,-1.403 -72.041,-49.471 -35.282,-0.002 21.98,39.329 73.603,53.958 5.477,1.468 0.744,-2.741 95.823,25.665 -0.738,2.753 5.48,1.458 30.596,-27.063 42.522,-73.654 2.446,1.422 4.012,-6.938 -5.9,-13.798 -0.012,0.008 -0.796,-1.86 L 145.62,-53.592 96.8,23.012 96.062,25.765 2.979,0.813 Z"
         style="fill:none;stroke:#231f20;stroke-width:0.283;stroke-linecap:butt;stroke-linejoin:miter;stroke-miterlimit:10;stroke-dasharray:none;stroke-opacity:1"
         id="path980" /></g><g
       id="g982"
       transform="translate(145.3867,203.3005)"><path
         d="m 0,0 -0.74,2.74 101.31,27.14 0.74,-2.74 z"
         style="fill:none;stroke:#ed1c24;stroke-width:0.283;stroke-linecap:butt;stroke-linejoin:miter;stroke-miterlimit:10;stroke-dasharray:none;stroke-opacity:1"
         id="path984" /></g><g
       id="g986"
       transform="translate(263.6201,136.0647)"><path
         d="m 0,0 v -104.88 h -5.67 v 2.83 h -11.34 v -5.67 h -181.41 v 5.67 h -11.34 v -2.83 h -5.67 V 0 h 5.67 v -2.84 h 11.34 V 2.83 H -17.01 V -2.84 H -5.67 V 0 Z"
         style="fill:none;stroke:#231f20;stroke-width:0.283;stroke-linecap:butt;stroke-linejoin:miter;stroke-miterlimit:10;stroke-dasharray:none;stroke-opacity:1"
         id="path988" /></g><g
       id="g990"><g
         id="g992"
         clip-path="url(#clipPath996)"><g
           id="g998"
           transform="translate(181.4175,119.0549)"><path
             d="m 0,0 c 0,-4.696 -3.808,-8.504 -8.504,-8.504 -4.697,0 -8.504,3.808 -8.504,8.504 0,4.697 3.807,8.504 8.504,8.504 C -3.808,8.504 0,4.697 0,0 Z"
             style="fill:none;stroke:#ed1c24;stroke-width:0.283;stroke-linecap:butt;stroke-linejoin:miter;stroke-miterlimit:10;stroke-dasharray:none;stroke-opacity:1"
             id="path1000" /></g></g></g></g></svg>
